<?xml version="1.0" encoding="UTF-8"?>
<svg id="Calque_1" data-name="Calque 1" xmlns="http://www.w3.org/2000/svg" viewBox="0 0 31.62 30.28">
  <defs>
    <style>
      .cls-1 {
        fill: #000;
        stroke: #fff;
      }
    </style>
  </defs>
  <path class="cls-1" d="m24.87,20.03c-.06-.36.06-.73.32-.99l5.87-5.72c.51-.49.69-1.22.47-1.89-.22-.67-.79-1.15-1.49-1.26l-8.11-1.18c-.36-.05-.68-.28-.84-.61l-3.63-7.35c-.31-.63-.95-1.03-1.65-1.03s-1.34.39-1.65,1.03l-3.63,7.35c-.16.33-.48.56-.84.61l-8.11,1.18c-.7.1-1.27.58-1.49,1.26-.22.67-.04,1.4.47,1.89l5.87,5.72c.26.26.38.63.32.99l-1.39,8.08c-.12.7.16,1.39.73,1.81.32.24.7.35,1.08.35.29,0,.59-.07.86-.21l7.25-3.81c.32-.17.71-.17,1.04,0l7.25,3.81c.63.33,1.37.28,1.94-.14s.85-1.11.73-1.81l-1.39-8.08h.02Z"/>
</svg>