<?xml version="1.0" encoding="utf-8"?>
<!-- Generator: Adobe Illustrator 27.1.1, SVG Export Plug-In . SVG Version: 6.00 Build 0)  -->
<svg version="1.1" id="Calque_1" xmlns="http://www.w3.org/2000/svg" xmlns:xlink="http://www.w3.org/1999/xlink" x="0px" y="0px"
	 viewBox="0 0 31 31" style="enable-background:new 0 0 31 31;" xml:space="preserve">
<style type="text/css">
	.st0{fill:#FFFFFF;}
</style>
<path class="st0" d="M15.5,1.6c7.7,0,13.9,6.2,13.9,13.9s-6.2,13.9-13.9,13.9S1.6,23.2,1.6,15.5S7.8,1.6,15.5,1.6 M15.5,0
	C7,0,0,7,0,15.5S7,31,15.5,31S31,24.1,31,15.5S24.1,0,15.5,0L15.5,0z"/>
<path class="st0" d="M17.3,11.3v2.5h3.4l-0.5,3.6h-2.9v8.7h-3.9v-8.7h-3.1v-3.6h3.1v-2.9c0-0.2,0-0.4,0-0.6c0.2-2.6,2.1-4.1,4.7-4.1
	c1.1,0,2,0.1,2.8,0.3l0,0v3.1H19C18.1,9.5,17.3,10.3,17.3,11.3z"/>
</svg>
