<?xml version="1.0" encoding="UTF-8"?>
<svg id="Calque_1" data-name="Calque 1" xmlns="http://www.w3.org/2000/svg" viewBox="0 0 31.04 31.04">
  <defs>
    <style>
      .cls-1 {
        fill: #fff;
      }
    </style>
  </defs>
  <g>
    <path class="cls-1" d="m15.52,11.1c-2.44,0-4.42,1.98-4.42,4.42s1.98,4.42,4.42,4.42,4.42-1.98,4.42-4.42-1.98-4.42-4.42-4.42Zm0,7.29c-1.58,0-2.87-1.29-2.87-2.87s1.29-2.87,2.87-2.87,2.87,1.29,2.87,2.87-1.29,2.87-2.87,2.87Z"/>
    <path class="cls-1" d="m20.13,9.88c-.57,0-1.03.46-1.03,1.03s.46,1.03,1.03,1.03,1.03-.46,1.03-1.03-.46-1.03-1.03-1.03Z"/>
    <path class="cls-1" d="m19.25,6.91h-7.44c-2.71,0-4.91,2.2-4.91,4.91v7.4c0,2.71,2.2,4.91,4.91,4.91h7.44c2.71,0,4.91-2.2,4.91-4.91v-7.4c0-2.71-2.2-4.91-4.91-4.91Zm3.36,12.31c0,1.85-1.51,3.36-3.36,3.36h-7.44c-1.85,0-3.36-1.51-3.36-3.36v-7.4c0-1.85,1.51-3.36,3.36-3.36h7.44c1.85,0,3.36,1.51,3.36,3.36v7.4Z"/>
  </g>
  <path class="cls-1" d="m15.52,1.61c7.68,0,13.91,6.23,13.91,13.91s-6.23,13.91-13.91,13.91S1.61,23.2,1.61,15.52,7.84,1.61,15.52,1.61m0-1.61C6.96,0,0,6.96,0,15.52s6.96,15.52,15.52,15.52,15.52-6.96,15.52-15.52S24.08,0,15.52,0h0Z"/>
</svg>