<?xml version="1.0" encoding="UTF-8"?>
<svg id="Calque_1" data-name="Calque 1" xmlns="http://www.w3.org/2000/svg" viewBox="0 0 31.22 31.3">
  <defs>
    <style>
      .cls-1, .cls-2, .cls-3, .cls-4 {
        fill: #fff;
      }

      .cls-2 {
        stroke-width: .25px;
      }

      .cls-2, .cls-3, .cls-4 {
        stroke: #fff;
        stroke-miterlimit: 10;
      }

      .cls-3 {
        stroke-width: .75px;
      }
    </style>
  </defs>
  <g>
    <path class="cls-2" d="m21.3,11.9c0-2.5-1-4.9-2.8-6.7s-4.1-2.8-6.7-2.8-4.8,1-6.6,2.8-2.8,4.1-2.8,6.7,1,4.9,2.8,6.7c1.8,1.8,4.1,2.8,6.7,2.8s4.9-1,6.7-2.8,2.7-4.2,2.7-6.7Zm-9.4,8.6c-2.3,0-4.5-.9-6.1-2.5s-2.5-3.8-2.5-6.1.9-4.5,2.5-6.1,3.8-2.5,6.1-2.5,4.5.9,6.1,2.5,2.5,3.8,2.5,6.1-.9,4.5-2.5,6.1c-1.7,1.6-3.8,2.5-6.1,2.5Z"/>
    <path class="cls-1" d="m31.2,28.3c0-.8-.4-1.5-1-2.1l-8.7-7.4c1.4-2,2.2-4.4,2.2-6.9,0-3.2-1.2-6.1-3.5-8.4C18,1.2,15,0,11.9,0S5.7,1.2,3.5,3.5C1.3,5.8,0,8.7,0,11.9s1.2,6.1,3.5,8.4c2.3,2.3,5.2,3.5,8.4,3.5,2.5,0,4.9-.8,6.9-2.2l7.5,8.7c.5.6,1.3,1,2.1,1h.1c.8,0,1.5-.3,2-.8.5-.7.8-1.5.7-2.2h0ZM4,19.7c-2.1-2.1-3.2-4.9-3.2-7.8s1.1-5.8,3.2-7.9C6.1,1.9,8.9.7,11.8.7s5.7,1.2,7.8,3.2,3.2,4.9,3.2,7.8c0,2.4-.8,4.8-2.3,6.7h0c-.3.4-.6.8-1,1.1-.4.4-.7.7-1.1,1h0c-1.9,1.5-4.2,2.3-6.7,2.3-2.8.1-5.6-1-7.7-3.1h0Zm25.8,10.2c-.4.4-1,.6-1.5.6-.6,0-1.1-.3-1.5-.7l-7.4-8.8c.3-.2.6-.5.9-.8s.5-.6.8-.9l8.7,7.4c.4.4.7.9.7,1.5,0,.7-.2,1.2-.7,1.7h0Z"/>
  </g>
  <path class="cls-3" d="m30.5,28.3c0,.6-.2,1.1-.6,1.5s-1,.6-1.5.6c-.6,0-1.1-.3-1.5-.7l-7.5-8.7c.3-.2.6-.5.9-.8s.5-.6.8-.9l8.7,7.4c.4.5.6,1,.7,1.6h0Z"/>
  <path class="cls-4" d="m19.7,4c-2.1-2.1-4.9-3.2-7.8-3.2s-5.8,1.1-7.9,3.2C1.9,6.1.7,8.9.7,11.8s1.2,5.7,3.2,7.8,4.9,3.2,7.8,3.2c2.4,0,4.8-.8,6.7-2.3q1.3-1,0,0c-1.9,1.5,0,0,0,0,.4-.3.8-.6,1.1-1,.4-.4.7-.7,1-1.1h0c1.5-1.9,2.3-4.2,2.3-6.7.1-2.8-1-5.6-3.1-7.7h0Zm-1.2,14.5c-1.8,1.8-4.1,2.8-6.7,2.8s-4.9-1-6.7-2.8-2.8-4.1-2.8-6.7,1-4.9,2.8-6.7c1.8-1.8,4.1-2.8,6.7-2.8s4.9,1,6.7,2.8c1.8,1.8,2.8,4.1,2.8,6.7s-1,4.9-2.8,6.7Z"/>
</svg>