<?xml version="1.0" encoding="UTF-8"?>
<svg id="Calque_1" data-name="Calque 1" xmlns="http://www.w3.org/2000/svg" viewBox="0 0 48.1 48.1">
  <defs>
    <style>
      .cls-1 {
        fill: #fff;
      }

      .cls-2 {
        fill: #3d6356;
        fill-rule: evenodd;
      }
    </style>
  </defs>
  <circle class="cls-1" cx="24.05" cy="24.05" r="24.05" transform="translate(-3.54 43.94) rotate(-80.78)"/>
  <path class="cls-2" d="m24.32,19.78c-1.18-6.24,6.32-9.95,10.74-5.45,0,0,1.97-.55,3.71-1.66,0,0-.63,2.13-2.76,3.48,0,0,2.37-.32,3.4-.95,0,0-1.03,2.13-2.92,2.92,1.03,14.3-14.38,22.99-26.86,15.88,0,0,6.16.32,8.77-2.69,0,0-3.79.32-5.69-4.27,0,0,1.42.55,2.84-.16,0,0-4.42-.71-4.82-6,0,0,1.42,1.11,3,.71,0,0-4.9-2.92-2.13-8.22,0,0,5.21,6.64,12.72,6.4h0Z"/>
</svg>