<?xml version="1.0" encoding="UTF-8"?>
<svg id="Calque_1" data-name="Calque 1" xmlns="http://www.w3.org/2000/svg" viewBox="0 0 31.04 31.04">
  <defs>
    <style>
      .cls-1 {
        fill: #fff;
      }
    </style>
  </defs>
  <path class="cls-1" d="m25.03,10.7c-.67.3-1.4.5-2.16.59.78-.47,1.37-1.2,1.65-2.08-.73.43-1.53.74-2.39.91-.69-.73-1.66-1.19-2.75-1.19-2.08,0-3.76,1.68-3.76,3.76,0,.29.03.58.1.86-3.13-.16-5.9-1.66-7.75-3.93-.32.56-.51,1.2-.51,1.89,0,1.3.67,2.46,1.67,3.13-.62-.02-1.2-.19-1.7-.47v.05c0,1.82,1.3,3.34,3.02,3.69-.32.09-.65.13-.99.13-.24,0-.48-.02-.71-.07.48,1.49,1.87,2.58,3.51,2.61-1.29,1.01-2.91,1.61-4.67,1.61-.3,0-.6-.02-.9-.05,1.67,1.07,3.64,1.69,5.77,1.69,6.92,0,10.7-5.73,10.7-10.7,0-.16,0-.32-.01-.49.73-.53,1.37-1.19,1.88-1.95h0Z"/>
  <path class="cls-1" d="m15.52,1.61c7.68,0,13.91,6.23,13.91,13.91s-6.23,13.91-13.91,13.91S1.61,23.2,1.61,15.52,7.84,1.61,15.52,1.61m0-1.61C6.96,0,0,6.96,0,15.52s6.96,15.52,15.52,15.52,15.52-6.96,15.52-15.52S24.08,0,15.52,0h0Z"/>
</svg>